<svg viewBox="244.8659 216.22 412.134 109.5599" width="5000" height="1329.1781313844526" xmlns="http://www.w3.org/2000/svg" xmlns:xlink="http://www.w3.org/1999/xlink" preserveAspectRatio="none"><defs></defs><style>.aD6z1nYkhcolor {fill:#FFFFFF;fill-opacity:1;}.aD6z1nYkhstrokeColor-str {stroke:#D9D9D9;stroke-opacity:1;}</style><g opacity="1" transform="rotate(0 244.8659 216.22)">
<svg width="108.3023" height="109.5599" x="244.8659" y="216.22" version="1.1" preserveAspectRatio="none" viewBox="7.1110005378723145 6.617000579833984 85.77700805664062 86.77301025390625">
  <g transform="matrix(1 0 0 1 0 0)" style="fill:#FFFFFF;fill-opacity:1;"><g><path d="M88.174,68.857v-0.334l4.714-2.722l-4.714-2.722v-0.172l4.091-2.361l-3.865-2.226l-0.087-0.349   c-0.104-0.695-0.713-0.609-0.713-0.609c-3.342,0.68-6.63,7.271-7.745,15.107c-1.113,7.832-6.369,7.066-9.084,7.137   c-2.614,0.066-8.039-0.175-8.039-0.175s5.674-7.554,3.307-9.189s-8.075,1.601-8.075,1.601c-0.766-3.967-2.784-7.066-2.61-7.031   s4.35-6.369,3.549-7.483c-0.8-1.114-10.268,0.034-10.268,0.034c-1.428-1.322-0.871-3.132-0.871-3.132   c3.969-8.354,15.873-7.519,19.214-7.519s6.265,2.681,14.201,1.74c4.329-0.512,6.683-2.749,6.996-5.812V22.846   c0-6.022-4.488-10.904-10.024-10.904H56.417c-0.696-3.049-3.419-5.325-6.678-5.325c-3.26,0-5.982,2.276-6.68,5.325H40.44   c-0.696-3.049-3.419-5.325-6.678-5.325c-3.26,0-5.982,2.276-6.68,5.325h-1.225L24.13,8.948l-1.729,2.993h-0.418L19.5,8.729   l-1.584,3.861l-4.671-2.201l0.359,4.314l-4.289-0.551l1.816,4.342l-4.02,2.322l4.209,2.431v0.916l-4.209,2.431l4.209,2.431v0.081   l-4.209,2.431l4.209,2.431v0.916l-4.209,2.432l4.209,2.43v0.081l-4.209,2.431l4.209,2.432v0.916l-4.209,2.43l4.209,2.432v0.08   l-4.209,2.432l4.209,2.431v0.916l-4.209,2.431l4.209,2.431v0.081l-4.209,2.431l4.209,2.431v0.916l-4.209,2.432l4.209,2.43v0.081   l-4.209,2.431l4.209,2.432v0.554l-4.194,3.078l4.71,2.069l-1.863,4.902l4.273-0.691l-0.219,4.318l4.146-2.121l1.599,3.841   l2.687-3.514l2.367,4.1l2.472-4.279l2.472,4.279l2.471-4.279l2.471,4.279l2.651-4.59h0.476l2.65,4.59l2.472-4.279l2.472,4.279   l2.65-4.59h0.477l2.65,4.59l2.471-4.279l2.472,4.279l2.651-4.59h0.477l2.65,4.59l2.471-4.279l2.471,4.279l2.651-4.59H70l2.65,4.59   l2.471-4.279l2.472,4.279l2.287-3.96l3.331,2.779l0.879-5.068l5.205,0.633l-1.696-3.983l4.244-0.825l-3.375-3.885l4.42-2.553   l-4.279-2.471l4.279-2.471L88.174,68.857z M85.772,60.046c0.331-0.266,0.77-0.537,1.126-0.508c0.392,0.033,0.681,0.435,0.609,1.632   c-0.003,0.06-0.013,0.139-0.017,0.204c-0.052,0.682-0.179,1.645-0.396,2.967c-0.024,0.148-0.044,0.278-0.071,0.437   c-0.089,0.526-0.159,0.982-0.222,1.407c-1.993,0.558-3.028-0.115-3.511-0.669c-0.249-0.286-0.353-0.538-0.365-0.571   c-0.004-0.009-0.011-0.014-0.014-0.022C84.263,60.987,85.772,60.046,85.772,60.046z M82.222,67.283   c0.116-0.474,0.237-0.907,0.36-1.323c0.11,0.138,0.243,0.281,0.405,0.424c0.219,0.191,0.484,0.377,0.813,0.525   c0.482,0.219,1.018,0.327,1.603,0.327c0.401,0,0.829-0.057,1.277-0.159c-0.047,0.365-0.08,0.687-0.106,0.979   c-0.029,0.325-0.05,0.619-0.062,0.877c-0.049,1.174,0.055,1.79,0.016,3.023c-1.494,0.648-2.771,0.807-3.727,0.439   c-0.536-0.207-0.889-0.538-1.112-0.825c-0.222-0.286-0.313-0.525-0.324-0.556C81.649,69.774,81.921,68.51,82.222,67.283z    M81.097,72.154c0.119,0.146,0.26,0.295,0.43,0.44c0.256,0.217,0.567,0.42,0.955,0.572c0.45,0.176,0.941,0.264,1.473,0.264   c0.759,0,1.605-0.195,2.522-0.555c-0.062,0.807-0.175,1.838-0.392,3.283c-0.058,0.391-0.142,0.774-0.238,1.154   c-1.586,0.586-2.946,0.654-4.05,0.203c-0.622-0.254-1.058-0.641-1.36-0.992c-0.228-0.267-0.377-0.507-0.458-0.66   C80.421,74.737,80.774,73.474,81.097,72.154z M79.578,76.79c0.121,0.166,0.266,0.34,0.444,0.52   c0.354,0.357,0.822,0.717,1.441,0.973c0.585,0.243,1.223,0.364,1.912,0.364c0.674,0,1.4-0.13,2.167-0.361   c-0.697,1.981-1.966,3.786-3.878,5.3c-1.682-0.031-2.918-0.479-3.668-1.332c-0.59-0.67-0.77-1.477-0.815-2.086   c-0.013-0.165-0.017-0.311-0.013-0.438C78.196,79.089,78.97,78.065,79.578,76.79z M76.341,80.13   c0.008,0.135,0.021,0.273,0.042,0.424c0.095,0.691,0.347,1.52,0.979,2.243c0.742,0.849,1.848,1.354,3.273,1.538   c-1.932,1.275-4.41,2.287-7.484,2.957c-0.738-0.688-1.163-1.479-1.227-2.373c-0.104-1.455,0.695-2.866,1.271-3.686   c0.307-0.434,0.554-0.711,0.561-0.718c0.002-0.001,0.002-0.003,0.003-0.005c0.384-0.023,0.769-0.047,1.153-0.07   C75.437,80.408,75.903,80.292,76.341,80.13z M47.146,85.489c3.002-5.358,9.971-6.975,11.15-7.211   c0.846,1.006,1.929,1.727,3.07,2.09c0.002,0.001,0.005,0.002,0.007,0.002c-0.001,0.001-0.003,0.002-0.004,0.002   c-2.103,1.029-6.327,3.521-6.96,7.109C51.351,86.978,48.982,86.26,47.146,85.489z M47.241,76.159   c-0.143-0.113-0.305-0.199-0.475-0.275c2.936-2.305,8.255-2.826,9.957-2.934c0.013,0,0.027-0.002,0.04-0.002   c-0.001,0.014,0,0.029-0.001,0.042c-0.021,0.748-0.123,1.186-0.123,1.186c0.078,1.261,0.486,2.402,1.102,3.364   c-2.002,0.441-8.425,2.258-11.363,7.612c-0.576-0.267-1.093-0.536-1.559-0.804C46.198,82.485,49.312,77.816,47.241,76.159z    M56.317,72.138c-2.203,0.159-7.705,0.823-10.574,3.514c-2.428-0.184-6.053,1.65-7.724,2.589c-0.622-0.753-1.304-1.597-2.009-2.483   c8.174-8.104,16.453-7.893,19.061-7.576c0.417,0.051,0.691,0.104,0.794,0.125c0.606,1.473,0.825,2.789,0.882,3.804   C56.626,72.116,56.477,72.126,56.317,72.138z M55.438,67.381c-0.21-0.031-0.464-0.063-0.763-0.091   c-1.189-0.111-3.052-0.15-5.354,0.262c-3.496,0.623-8.665,2.453-13.832,7.547c-1-1.27-2.023-2.597-2.964-3.85   c0.866-0.789,2.085-2.09,3.039-3.413c9.673-7.067,15.753-5.226,16.766-4.837c0.462,0.588,0.909,1.156,1.347,1.702   c0.047,0.06,0.096,0.122,0.143,0.181C54.505,65.733,55.028,66.573,55.438,67.381z M46.058,55.921   c0.297,0.261,0.593,0.533,0.886,0.818c-0.212-0.036-0.448-0.07-0.707-0.099c-3.167-0.35-9.831,0.138-18.802,7.308   c-1.127-1.182-2.305-2.82-0.033-5.645c3.446-4.281,7.623-5.116,12.635-5.222C42.083,53.04,44.11,54.208,46.058,55.921z    M49.068,58.995c0.812,0.933,1.602,1.906,2.363,2.867c-2.337-0.506-7.456-0.678-14.782,4.189c0.373-0.799,0.514-1.512,0.254-2.005   c-0.799-1.519-6.293-0.227-8.836,0.465c9.193-7.299,15.92-7.347,18.611-6.947c0.828,0.122,1.279,0.286,1.298,0.293   c0.025,0.01,0.052,0.009,0.077,0.014C48.396,58.237,48.734,58.61,49.068,58.995z M86.503,37.442l-4.507,4.019l-5.104-4.551   l-5.103,4.551l-5.103-4.551l-5.104,4.551l-5.104-4.551l-5.104,4.551l-5.104-4.551l-5.104,4.551l-5.104-4.551l-5.104,4.551   L25.849,36.9l-5.113,4.561l-5.613-5.007h10.227h1.002h9.204h1.021h9.185h1.021h9.186h1.022h9.185h1.021h9.186h1.021h9.1h1.107   L86.503,37.442z M13.183,26.057c0-3.84,3.113-6.954,6.953-6.954s6.953,3.114,6.953,6.954s-3.113,6.953-6.953,6.953   S13.183,29.896,13.183,26.057z M33.763,9.83c2.012,0,3.643,1.631,3.643,3.644s-1.631,3.644-3.643,3.644s-3.644-1.631-3.644-3.644   S31.751,9.83,33.763,9.83z M49.739,9.83c2.012,0,3.643,1.631,3.643,3.644s-1.631,3.644-3.643,3.644   c-2.013,0-3.645-1.631-3.645-3.644S47.727,9.83,49.739,9.83z M80.618,21.775c0,1.199-0.974,2.174-2.174,2.174   c-1.201,0-2.174-0.975-2.174-2.174c0-1.201,0.973-2.175,2.174-2.175C79.645,19.601,80.618,20.574,80.618,21.775z M63.022,88.181   c-0.424-0.006-0.829,0.002-1.268-0.013c-0.317-0.011-0.622-0.026-0.931-0.04c-1.206-0.055-2.345-0.137-3.409-0.246   c-0.762-0.078-1.488-0.169-2.182-0.271c0.609-3.376,5.046-5.799,6.853-6.651c0.302-0.143,0.532-0.244,0.655-0.295   c1.322,0.162,3.082,0.186,5.066,0.132c-0.201,0.132-0.422,0.286-0.654,0.459c-1.63,1.21-3.795,3.409-3.688,6.479   c0.005,0.147,0.023,0.3,0.039,0.45C63.345,88.185,63.185,88.183,63.022,88.181z M68.036,88.029   c-0.732,0.059-1.495,0.098-2.277,0.124c-0.468,0.016-0.931,0.035-1.417,0.039c-0.031-0.254-0.051-0.503-0.048-0.744   c0.045-3.225,2.977-5.363,4.306-6.166c0.378-0.229,0.633-0.354,0.645-0.359c0.083-0.04,0.14-0.106,0.181-0.182   c1.04-0.043,2.119-0.102,3.215-0.164c-0.145,0.193-0.301,0.426-0.465,0.693c-0.58,0.941-1.184,2.276-1.084,3.703   c0.066,0.941,0.433,1.788,1.084,2.531c-0.309,0.058-0.643,0.098-0.963,0.148C70.208,87.812,69.153,87.94,68.036,88.029z"></path><circle cx="33.763" cy="13.473" r="2.172"></circle><circle cx="49.739" cy="13.473" r="2.172"></circle></g></g>
</svg>
</g><g opacity="1" transform="rotate(0 362.1682 243.2473)">
<svg width="294.8317" height="55.5053" x="362.1682" y="243.2473" version="1.1" preserveAspectRatio="none" viewBox="-0.56 -32.16 173.8 32.72">
  <g transform="matrix(1 0 0 1 0 0)" class="aD6z1nYkhcolor"><path id="id-D6z1nYkh8" d="M23.76 0L21.56-5.44L9.72-5.44L7.52 0L-0.56 0L11.80-28L19.60-28L32 0L23.76 0ZM12.04-11.28L19.24-11.28L15.64-20.24L12.04-11.28Z M33.88 0L33.88-29.68L41.48-29.68L41.48 0L33.88 0Z M46.40 0L46.40-21.68L54-21.68L54 0L46.40 0ZM50.20-24.08Q48.12-24.08 46.84-25.24Q45.56-26.40 45.56-28.12L45.56-28.12Q45.56-29.84 46.84-31Q48.12-32.16 50.20-32.16L50.20-32.16Q52.28-32.16 53.56-31.06Q54.84-29.96 54.84-28.24L54.84-28.24Q54.84-26.44 53.56-25.26Q52.28-24.08 50.20-24.08L50.20-24.08Z M78.04-6.92L78.04-14.60L85.04-14.60L85.04-3Q82.64-1.28 79.52-0.36Q76.40 0.56 73.28 0.56L73.28 0.56Q68.88 0.56 65.36-1.30Q61.84-3.16 59.84-6.48Q57.84-9.80 57.84-14L57.84-14Q57.84-18.20 59.84-21.52Q61.84-24.84 65.40-26.70Q68.96-28.56 73.44-28.56L73.44-28.56Q77.36-28.56 80.48-27.24Q83.60-25.92 85.68-23.44L85.68-23.44L80.64-18.88Q77.80-22 73.84-22L73.84-22Q70.24-22 68.04-19.82Q65.84-17.64 65.84-14L65.84-14Q65.84-11.68 66.84-9.86Q67.84-8.04 69.64-7.02Q71.44-6 73.76-6L73.76-6Q76.04-6 78.04-6.92L78.04-6.92Z M98.96-22.04Q104.36-22.04 107.20-19.58Q110.04-17.12 110.04-12.04L110.04-12.04L110.04 0L102.96 0L102.96-2.80Q101.32 0.36 96.56 0.36L96.56 0.36Q94.04 0.36 92.20-0.52Q90.36-1.40 89.42-2.90Q88.48-4.40 88.48-6.32L88.48-6.32Q88.48-9.40 90.84-11.10Q93.20-12.80 98.12-12.80L98.12-12.80L102.44-12.80Q102.24-16.24 97.84-16.24L97.84-16.24Q96.28-16.24 94.68-15.74Q93.08-15.24 91.96-14.36L91.96-14.36L89.40-19.52Q91.20-20.72 93.78-21.38Q96.36-22.04 98.96-22.04L98.96-22.04ZM98.68-4.44Q100-4.44 101-5.08Q102-5.72 102.44-6.96L102.44-6.96L102.44-8.84L99.16-8.84Q95.84-8.84 95.84-6.64L95.84-6.64Q95.84-5.64 96.60-5.04Q97.36-4.44 98.68-4.44L98.68-4.44Z M127.92-6.20L129.80-0.88Q128.84-0.28 127.46 0.04Q126.08 0.36 124.52 0.36L124.52 0.36Q120.28 0.36 118-1.72Q115.72-3.80 115.72-7.92L115.72-7.92L115.72-15.20L112.56-15.20L112.56-20.88L115.72-20.88L115.72-26.52L123.32-26.52L123.32-20.88L128.28-20.88L128.28-15.20L123.32-15.20L123.32-8Q123.32-6.84 123.94-6.18Q124.56-5.52 125.60-5.52L125.60-5.52Q126.92-5.52 127.92-6.20L127.92-6.20Z M142.96 0.36Q139.48 0.36 136.68-1.08Q133.88-2.52 132.30-5.08Q130.72-7.64 130.72-10.88L130.72-10.88Q130.72-14.08 132.30-16.64Q133.88-19.20 136.66-20.62Q139.44-22.04 142.96-22.04L142.96-22.04Q146.48-22.04 149.28-20.62Q152.08-19.20 153.64-16.66Q155.20-14.12 155.20-10.88L155.20-10.88Q155.20-7.64 153.64-5.08Q152.08-2.52 149.28-1.08Q146.48 0.36 142.96 0.36L142.96 0.36ZM142.96-5.68Q144.96-5.68 146.24-7.06Q147.52-8.44 147.52-10.88L147.52-10.88Q147.52-13.28 146.24-14.64Q144.96-16 142.96-16L142.96-16Q140.96-16 139.68-14.64Q138.40-13.28 138.40-10.88L138.40-10.88Q138.40-8.44 139.68-7.06Q140.96-5.68 142.96-5.68L142.96-5.68Z M165.96-19.08Q167.12-20.56 168.98-21.30Q170.84-22.04 173.24-22.04L173.24-22.04L173.24-15.20Q172.20-15.32 171.52-15.32L171.52-15.32Q169.08-15.32 167.70-14Q166.32-12.68 166.32-9.96L166.32-9.96L166.32 0L158.72 0L158.72-21.68L165.96-21.68L165.96-19.08Z"/></g>
</svg>
</g></svg>